# xmcd
#
# Track frame offsets: 
#        150
#        15286
#        31257
#        42467
#        53352
#        64900
#        77364
#        92365
#        105911
#        116989
#        128692
#        140566
#        155841
#        167013
#        182368
#        193799
#        205896
#        218797
#        231265
#        243786
#
# Disc length: 3449 seconds
#
# Revision: 0
# Processed by: cddbd v1.5.2PL0 Copyright (c) Steve Scherf et al.
# Submitted via: ExactAudioCopy v0.95b3
#
DISCID=fe0d7714
DTITLE=The Zombies  - Into The Afterlife  
DYEAR=1900
DGENRE=
TTITLE0=She's Not There
TTITLE1=Hung Upside Down
TTITLE2=Unhappy Girl
TTITLE3=She Loves The Way They Love Her
TTITLE4=Telescope (Mr Galileo)
TTITLE5=Walking In The Sun (Orchestral Mix)
TTITLE6=Without Her
TTITLE7=Twelve Twenty Nine
TTITLE8=It Never Fails To Please Me
TTITLE9=I Could Spend The Day
TTITLE10=I Know She Will (Orchestral Mix)
TTITLE11=Don't Try To Explain
TTITLE12=World Of Glass
TTITLE13=To Julia (For When She Smiles)
TTITLE14=If It Don't Work Out (ORchestral Mix)
TTITLE15=Never My Love
TTITLE16=It's Not Easy
TTITLE17=Telescope (Mr Galileo)
TTITLE18=Going To A Go Go
TTITLE19=Ma Non E Giusto (She's Not There - Italian)
EXTD=
EXTT0=
EXTT1=
EXTT2=
EXTT3=
EXTT4=
EXTT5=
EXTT6=
EXTT7=
EXTT8=
EXTT9=
EXTT10=
EXTT11=
EXTT12=
EXTT13=
EXTT14=
EXTT15=
EXTT16=
EXTT17=
EXTT18=
EXTT19=
PLAYORDER=
